# xmcd CD database file
#
# Track frame offsets:
#	150
#	18325
#	39058
#	57238
#
# Disc length: 1038 seconds
#
# Revision: 0
# Processed by: cddbd v1.5.1PL2 Copyright (c) Steve Scherf et al.
# Submitted via: CDex 1.51
#
DISCID=23040c04
DTITLE=桃井かおり - 予感
DYEAR=1994
DGENRE=JPop
TTITLE0=予感
TTITLE1=恋のバッドチューニング
TTITLE2=予感（オリジナルカラオケ）
TTITLE3=恋のバッドチューニング（オリジナルカラオケ）
EXTD=YEAR: 1994
EXTT0=
EXTT1=
EXTT2=
EXTT3=
PLAYORDER=
